<?xml version="1.0" encoding="UTF-8"?>
<svg width="30px" height="30px" viewBox="0 0 30 30" version="1.1" xmlns="http://www.w3.org/2000/svg" xmlns:xlink="http://www.w3.org/1999/xlink">
    <!-- Generator: Sketch 46.2 (44496) - http://www.bohemiancoding.com/sketch -->
    <title>Logo</title>
    <desc>Created with Sketch.</desc>
    <defs></defs>
    <g id="Platform-1.0" stroke="none" stroke-width="1" fill="none" fill-rule="evenodd">
        <g id="Boarding" transform="translate(-50.000000, -50.000000)" fill="#FFFFFF">
            <path d="M77.3840086,69.3592029 C76.9087428,70.7094002 76.2174207,71.967535 75.3292704,73.0986291 C74.4494451,74.2191013 73.4008886,75.184286 72.2127194,75.9673894 C71.6384911,76.3458489 71.0388566,76.6768615 70.4178001,76.9586928 C70.2333563,77.0424022 70.0175719,76.9428115 69.9617344,76.7481021 L69.301031,74.4439326 C69.2570248,74.2904732 69.3288185,74.12732 69.4719092,74.0565106 C70.7783346,73.4100948 71.9360912,72.485907 72.8574759,71.3472942 C73.4265667,70.6440565 73.8979418,69.86805 74.2585138,69.0408372 C74.6304483,68.1875901 74.8827953,67.2831742 75.0085516,66.3527239 C75.1911204,65.0019828 75.1035297,63.6553761 74.7482359,62.3503007 C74.4051858,61.0902535 73.8283231,59.9224656 73.0336416,58.8794028 C72.2389507,57.8363399 71.2662191,56.9701647 70.1424282,56.3049332 C68.9784934,55.6159268 67.7034555,55.1740079 66.3527145,54.9914391 C65.0019734,54.8088796 63.6553761,54.8964609 62.3503007,55.2517641 C61.0902347,55.5948142 59.9224562,56.1716863 58.8793934,56.9663584 C57.8363493,57.7610306 56.9701647,58.7337809 56.3049238,59.8575625 C55.6159174,61.0214972 55.1739985,62.2965351 54.9914391,63.6472761 C54.8088796,64.9980078 54.8964609,66.3446145 55.2517641,67.6496899 C55.5948049,68.9097559 56.1716769,70.0775344 56.9663584,71.1205972 C57.7610306,72.1636601 58.7337715,73.0298353 59.8575531,73.6950668 C60.0769,73.8249199 60.300222,73.9459231 60.527247,74.0581044 C60.6702065,74.128745 60.7420471,74.2916638 60.6987158,74.4451326 L60.0476313,76.7508584 C59.9924687,76.9462147 59.7763468,77.0465835 59.5914249,76.9628459 C58.9670778,76.6801052 58.3643401,76.3477239 57.7872524,75.96738 C56.5990833,75.1842766 55.5505267,74.2190919 54.6707202,73.0986197 C53.7825512,71.9675256 53.0912478,70.7093908 52.6159914,69.3591935 C52.1243007,67.9623369 51.8750006,66.4956927 51.8750006,65.0000047 C51.8750006,63.2277354 52.2218944,61.5089598 52.9060353,59.8914437 C53.234901,59.1139372 53.6419824,58.3639557 54.1159919,57.6623399 C54.5856514,56.9671553 55.1250516,56.3133895 55.7192112,55.7192205 C56.3133801,55.1250516 56.9671459,54.5856514 57.6623399,54.1159825 C58.3639557,53.6419824 59.1139372,53.234901 59.8914437,52.9060447 C61.5089505,52.2218851 63.2277166,51.8749912 64.9999953,51.8749912 C66.772274,51.8749912 68.4910402,52.2218851 70.1085469,52.9060447 C70.8860628,53.234901 71.6360443,53.6419824 72.3376601,54.1159825 C73.0328541,54.5856514 73.6866105,55.1250516 74.2807701,55.7192205 C74.874939,56.3133895 75.4143392,56.9671553 75.8840081,57.6623399 C76.3580176,58.3639557 76.7650896,59.1139372 77.0939553,59.8914437 C77.7781056,61.5089692 78.1249994,63.2277354 78.1249994,65.0000047 C78.1249994,66.4956927 77.87569,67.9623369 77.3840086,69.3592029 M68.9601841,68.2651307 C69.3314342,67.8152243 69.621028,67.3104742 69.8208093,66.7647552 C70.0276219,66.1998176 70.1325282,65.6060986 70.1325282,65.0000047 C70.1325282,64.307567 69.9966844,63.6352761 69.7287468,63.0019103 C69.470278,62.3906507 69.1002466,61.8418381 68.6292464,61.3707442 C68.1581525,60.8997534 67.6093399,60.5298158 66.9980897,60.2712532 C66.3647145,60.0033156 65.692433,59.8674718 64.9999953,59.8674718 C64.3075576,59.8674718 63.6352761,60.0033156 63.0019009,60.2712532 C62.3906507,60.5298158 61.8418381,60.8997534 61.3707442,61.3707442 C60.899744,61.8418381 60.5298064,62.3906507 60.2712438,63.0019103 C60.0033063,63.6352761 59.8674625,64.307567 59.8674625,65.0000047 C59.8674625,65.6060986 59.9723687,66.1998176 60.1791813,66.7647552 C60.3790564,67.3104742 60.6685565,67.8152243 61.0399003,68.2651307 C61.314091,68.5973808 61.6264474,68.8920184 61.9719537,69.1446185 C62.083535,69.2261904 62.1321819,69.3688498 62.0946257,69.5018717 L61.4042973,71.9464506 C61.3456004,72.1543038 61.1073066,72.2510538 60.9197784,72.1438788 C60.8839472,72.1234038 60.8482471,72.1026382 60.8126784,72.0815819 C59.8977156,71.5399505 59.1054247,70.8343315 58.4578183,69.9843 C57.8101931,69.1342685 57.3402148,68.1830807 57.0609147,67.1571647 C56.7718927,66.0955207 56.7007833,64.9991234 56.8495459,63.8984137 C56.9983178,62.7976946 57.3579335,61.7595068 57.9184087,60.8126878 C58.4600401,59.897725 59.1656591,59.1054341 60.0156906,58.4578183 C60.8657315,57.8102024 61.8169099,57.3402148 62.8428353,57.0609147 C63.90447,56.7718927 65.0008578,56.7007833 66.1015863,56.8495459 C67.202296,56.9983178 68.2404838,57.3579335 69.1873029,57.9184181 C70.1022657,58.4600495 70.8945659,59.1656685 71.5421817,60.0157 C72.1897882,60.8657315 72.6597758,61.8169193 72.9390759,62.8428353 C73.2280979,63.9044793 73.2992167,65.0008766 73.1504541,66.1015863 C73.0478916,66.8603428 72.8424103,67.5971899 72.5397102,68.2916151 C72.2464788,68.9643372 71.8630037,69.5955749 71.3999254,70.1678063 C70.7512034,70.9694816 69.9586969,71.6405911 69.0686247,72.14806 C68.8821653,72.2543632 68.6453152,72.1572663 68.5861496,71.9509412 L67.8879181,69.5161498 C67.8495556,69.3823967 67.89854,69.2385654 68.01119,69.1568904 C68.3634276,68.9015434 68.6815027,68.6027339 68.9601841,68.2651307 M79.6952655,61.9779725 C79.4981092,61.0144566 79.2039029,60.0667 78.8208403,59.1610279 C78.4448183,58.2720245 77.9794619,57.4146429 77.4376804,56.6127052 C76.9012147,55.8186331 76.2851457,55.0719422 75.6066018,54.3933982 C74.9280484,53.7148449 74.1813763,53.0987947 73.3872948,52.5623196 C72.5853664,52.0205381 71.7279662,51.5551817 70.8389534,51.1791597 C69.9333,50.7960877 68.9855434,50.5019002 68.0220275,50.3047251 C67.0338741,50.102525 66.0171081,50 64.9999953,50 C63.9828825,50 62.9661166,50.102525 61.9779725,50.3047251 C61.0144378,50.5019002 60.0666906,50.7960877 59.1610279,51.1791597 C58.2720151,51.5551817 57.4146336,52.0205381 56.6127052,52.5623196 C55.8186237,53.0987947 55.0719422,53.7148449 54.3933889,54.3933982 C53.7148543,55.0719422 53.0987853,55.8186331 52.5623102,56.6127052 C52.0205381,57.4146429 51.5551724,58.2720245 51.1791597,59.1610372 C50.7960971,60.0667 50.5018908,61.0144566 50.3047251,61.9779725 C50.102525,62.9661259 50,63.9828825 50,65.0000047 C50,66.7082615 50.2850938,68.3843714 50.8473503,69.9817406 C51.3908098,71.5256817 52.1810101,72.9639384 53.1960135,74.2565826 C54.2007701,75.5361767 55.3983329,76.6384989 56.7554302,77.5329305 C58.0407338,78.3800651 59.4375811,79.0194309 60.9121003,79.4359998 C61.0913785,79.486653 61.2773035,79.3801717 61.3238692,79.1997966 L61.5315536,78.3953651 L62.4613195,75.1028735 C62.5090383,74.9339078 62.6800477,74.8319828 62.8516665,74.869089 C63.1136978,74.9257515 63.3789823,74.9722891 63.6472668,75.0085609 C64.1003325,75.0697891 64.5581889,75.1005672 65.0137391,75.1005672 C65.0474422,75.1005672 65.0811453,75.1004078 65.1148297,75.100061 C65.302311,75.098186 65.4508111,74.9409953 65.4425142,74.7536827 L65.3888704,73.5423949 C65.3810048,73.3646261 65.2342673,73.2245448 65.0563391,73.2254635 C64.670764,73.2274791 64.2825732,73.2023729 63.8984043,73.1504447 C63.7340137,73.128226 63.5710386,73.1012728 63.4095542,73.0696416 C63.2188291,73.0323009 63.1001135,72.8408071 63.1529229,72.6537758 L63.8984325,70.01385 L64.1568075,69.0988497 L64.1568075,69.098756 L64.3158826,68.5355058 C64.366142,68.3575495 64.261292,68.1722057 64.0824732,68.125115 C64.0546763,68.1178025 64.0286981,68.1103963 64.0057763,68.1030369 C63.5209011,67.9473087 63.0759635,67.6775055 62.7113696,67.3178804 C62.6323383,67.2399648 62.557057,67.1578397 62.4859945,67.0716928 C62.2502132,66.7860271 62.0664631,66.4658801 61.9399006,66.1200269 C61.8089318,65.7622862 61.742463,65.3855048 61.742463,65.0000047 C61.742463,64.1299107 62.0813694,63.3118385 62.6965571,62.6965571 C63.3118385,62.0813694 64.1299013,61.7424724 64.9999953,61.7424724 C65.8700893,61.7424724 66.6881521,62.0813694 67.3034335,62.6965571 C67.918715,63.3118385 68.2575276,64.1299107 68.2575276,65.0000047 C68.2575276,65.3855048 68.1910588,65.7622862 68.06009,66.1200269 C67.9335275,66.4658801 67.7497774,66.7860271 67.5139961,67.0716928 C67.4357148,67.1665679 67.3522773,67.2566616 67.2643398,67.3415992 C67.0118709,67.585443 66.7221834,67.7868087 66.4081208,67.9378494 C66.2604645,68.0088838 66.0703113,68.0735056 65.8850425,68.1250682 C65.7079768,68.1743526 65.6054705,68.3590495 65.656133,68.5357308 L65.90683,69.4100061 L66.0813082,70.0182563 L68.332012,77.8670743 L68.6760746,79.1997966 C68.7226496,79.3801811 68.9085653,79.4866623 69.0878435,79.4360092 C70.5623721,79.0194403 71.9592194,78.3800745 73.2445416,77.5329492 C74.6016389,76.6385083 75.7992112,75.5361861 76.8039678,74.256592 C77.8189712,72.9639572 78.6091808,71.5256911 79.1526404,69.9817406 C79.7149062,68.3843714 80,66.7082708 80,65.0000047 C80,63.9828825 79.897475,62.9661259 79.6952655,61.9779725" id="Logo"></path>
        </g>
    </g>
</svg>