<?xml version="1.0" encoding="UTF-8"?>
<svg width="70px" height="110px" viewBox="0 0 70 110" version="1.1" xmlns="http://www.w3.org/2000/svg" xmlns:xlink="http://www.w3.org/1999/xlink">
    <!-- Generator: Sketch 46.2 (44496) - http://www.bohemiancoding.com/sketch -->
    <title>Illustration</title>
    <desc>Created with Sketch.</desc>
    <defs></defs>
    <g id="Platform-1.0" stroke="none" stroke-width="1" fill="none" fill-rule="evenodd">
        <g id="Boarding" transform="translate(-50.000000, -50.000000)">
            <g id="Illustration" transform="translate(50.000000, 50.000000)">
                <text id="300" font-family="Oswald-Regular, Oswald" font-size="30" font-weight="normal" line-spacing="30" letter-spacing="-0.599999964" fill="#FFFFFF">
                    <tspan x="12" y="95">300</tspan>
                </text>
                <rect id="Rectangle-6-Copy" stroke="#FFFFFF" x="0.5" y="0.5" width="69" height="109"></rect>
                <path d="M0.5,37.5 L69.5,37.5" id="Line" stroke="#FFFFFF" stroke-linecap="square"></path>
                <path d="M26.828,19.944 C26.828,20.912 26.806,25.158 29.776,25.158 L29.776,25.488 L23.242,25.488 L23.242,25.158 C26.498,25.158 26.498,20.934 26.498,19.944 L26.828,19.944 Z M23,10 L27.73,10 L37.234,22.012 L37.234,25.488 L36.31,25.488 L25.618,11.936 C24.21,10.176 23.572,10.374 23,10.33 L23,10 Z M33.956,10.33 L33.956,10 L40.446,10 L40.446,10.33 C37.19,10.308 37.234,14.51 37.234,15.544 L36.904,15.544 C36.904,14.51 36.926,10.308 33.956,10.33 Z M48.784,16.171804 C48.784,13.6028749 47.5188998,11.4860773 45.1596588,11.280563 L45.1596588,11.5888345 C46.1683198,11.7943488 46.6299104,12.8630233 46.6299104,16.171804 C46.6299104,19.5011362 46.1683198,20.5698107 45.1596588,20.775325 L45.1596588,21.0835965 C47.5188998,20.8780822 48.784,18.7407332 48.784,16.171804 Z M42.9029936,16.171804 C42.9029936,12.8630233 43.3645842,11.7943488 44.3732452,11.5888345 L44.3732452,11.280563 C42.0311002,11.4860773 40.766,13.6028749 40.766,16.171804 C40.766,18.7407332 42.0311002,20.8780822 44.3732452,21.0835965 L44.3732452,20.775325 C43.3645842,20.5698107 42.9029936,19.5011362 42.9029936,16.171804 Z M49,25 L49,23.998 L40.982,23.998 L40.982,25 L49,25 Z" id="Numero" fill="#FFFFFF"></path>
            </g>
        </g>
    </g>
</svg>